<?xml version="1.0" encoding="utf-8"?>
<!-- Generator: Adobe Illustrator 20.1.0, SVG Export Plug-In . SVG Version: 6.00 Build 0)  -->
<svg version="1.1" id="Layer_1" xmlns="http://www.w3.org/2000/svg" xmlns:xlink="http://www.w3.org/1999/xlink" x="0px" y="0px"
	 viewBox="0 0 528 257.2" style="enable-background:new 0 0 528 257.2;" xml:space="preserve">
<style type="text/css">
	.st0{fill:#D6644D;stroke:#000000;stroke-width:2;stroke-miterlimit:10;}
	.st1{fill:#F5EB20;stroke:#191717;stroke-width:2;stroke-miterlimit:10;}
	.st2{fill:#FFFFFF;stroke:#19180D;stroke-width:2;stroke-miterlimit:10;}
	.st3{fill:#6163AD;stroke:#000000;stroke-width:2;stroke-miterlimit:10;}
	.st4{fill:#FFFFFF;stroke:#000000;stroke-width:2;stroke-miterlimit:10;}
	.st5{fill:#19180D;}
</style>
<path class="st0" d="M130.9,167.8H94.6c0,0,11,14,20.3,21.7c2.7,2.2,4.6,5,6.1,7.7l-15.7,22.4c0,0,1.5,9.7,4.8,10.6
	s13.7,2.2,13.7,2.2s5.8-1.4,0.9-5.7c-4.9-4.3-7.9-7.5-7.9-7.5l11.3-10.8l2.7-4.6l-0.2-0.2c1.1-1.7,2.1-3.6,3-5.8
	C137,190,130.9,167.8,130.9,167.8z"/>
<path class="st0" d="M397.9,39.9c0,0,6.9-19.3,27.2-22.2s28.2,5.5,28.5,17.8s-9.9,27.2-13.5,27.1c-3.6-0.1-9.6-24.5-20.6-19.1
	c-11,5.4-15.1,12.2-15.1,12.2"/>
<path class="st0" d="M98,142.9c0,0,18.5,12,41.5,14.5S344,125.9,344,125.9l20,44.5c0,0-44,14-70.5,18s-130-10.5-153-10.5
	s-52,11.2-52,11.2S67,188.4,66,173.4S98,142.9,98,142.9z"/>
<path class="st0" d="M67.3,178.5c0,0,9.7,14,18.9,21.7c2.7,2.2,4.6,5,6.1,7.7l-15.7,22.4c0,0,1.5,9.7,4.8,10.6s13.7,2.2,13.7,2.2
	s5.8-1.4,0.9-5.7c-4.9-4.3-7.9-7.5-7.9-7.5l11.3-10.8l2.7-4.6l-0.2-0.2c1.1-1.7,2.1-3.6,3-5.8c3.3-7.9-2.8-30-2.8-30"/>
<path class="st0" d="M66,173.4"/>
<path class="st0" d="M102.2,178.5"/>
<path class="st0" d="M320.7,130.2c0,0,16.6-17.8,19.3-23.5c2.7-5.7-4-65.3,12.7-66.3c16.7-1,52.3-10,57.3,12.3s-23,44.7-26.7,61.3
	c-3.7,16.7-19.3,56.3-19.3,56.3s-6,21.5-11.5,29.7c-5.5,8.3-14,16.8-14,16.8s13,0.7,12.8,4.9c-0.3,4.1,3.3,10.1,0,10.1
	s-18.8,0-18.8,0l-6-10.1c0,0,5.5-8.9,7-15.4c1.5-6.5,14.5-36,14.5-36"/>
<path class="st0" d="M394.3,74.4L512,85.7c0,0-36.7,32.7-79.3,29c-42.7-3.7-50.7-13.3-50.7-13.3"/>
<path class="st0" d="M358,42.1c0,0-13.3-18.7-45.7-20c-32.3-1.3-43.7,7.7-42.7,20s19,26.3,24.7,26c5.7-0.3,12-25.2,30-20.7
	c18,4.5,25.3,11,25.3,11"/>
<path class="st0" d="M335.1,163l-17.5,57.9c0,0,8.7,5.4,8.7,6.4s0.4,10.1,0.4,10.1h-15.4c0,0-4.6-15.9-5-25.5
	c-0.4-9.6,2.5-27.8,2.5-27.8l-2.5-11.8"/>
<path class="st0" d="M102.2,145.4c0,0,2.6-2.4-15.5-13.9s-56.2,3.4-56.2,3.4s27.7-2.8,36.8,1.4c9.2,4.2,14.1,16.5,14.1,16.5"/>
<path d="M483.6,83.2l27.4,3l-25.2,18.9c0,0-9.3-8.6-9.3-13.9c0-5.3,0-8.7,0-8.7L483.6,83.2z"/>
<path class="st0" d="M348.7,43.7c0,0,4.3-8.7,9.3-10s10.3,0,10.3,0s-7.2-7.7-13-3.7C349.5,34.1,348.7,43.7,348.7,43.7z"/>
<path class="st0" d="M386.3,28.9c0,0,9.5-0.2,11.6,0c2.1,0.2,4.3,3.2,4.3,3.2s1.2-6.7-4.3-7.1C392.3,24.7,386.3,28.9,386.3,28.9z"/>
<path class="st1" d="M344.2,50.1c0,0,1.9-3.7,26.5-3.9s42.3,3.9,42.3,3.9s6.8,26.3-12.8,33.5s-30-8.3-30-8.3s-6,9-12.3,8.8
	s-17.4-21.8-16.7-26.9C342,52.3,344.2,50.1,344.2,50.1z"/>
<path class="st2" d="M347.7,54c0,0,1.6-2.8,22.2-2.9c20.6-0.1,35.5,2.9,35.5,2.9s5.7,19.8-10.7,25.3c-16.4,5.5-25.2-6.2-25.2-6.2
	s-5,6.8-10.3,6.6s-14.6-16.5-14-20.3C345.9,55.6,347.7,54,347.7,54z"/>
<ellipse cx="362.4" cy="65.9" rx="1.6" ry="3.6"/>
<ellipse cx="384.1" cy="65.9" rx="2.1" ry="3.6"/>
<path class="st3" d="M335.7,112.3c3.9-1.5,8-2.8,12.2-3.6c-14.2-21.8-10.4-88.5-10.4-88.5s-2.5-4.3-9.5-4.8s-11,1.7-11,1.7
	s6,76.5,11,84.8C329.8,104.9,332.6,108.7,335.7,112.3z"/>
<path class="st4" d="M328.7,103.1c0,0,3.4-4.2,6.3-5.9c2.9-1.8,7.9,0,7.9,0s-2,18.2,22.4,17.9c24.4-0.4,18.8-10.7,18.8-10.7l9.2,3
	c0,0-6.9,27.5-34.9,22.3C330.5,124.4,328.7,103.1,328.7,103.1z"/>
<path class="st5" d="M111.5,210.9c0,0,1.5,3.7,3.2,3.9c1.7,0.2,7.5-0.5,7.5-0.5s-6.9,3.2-5.2,5c1.7,1.8,19.6,11.7,27.3,11.7
	c7.7,0,22.7-1,22.7-1s-12.5,4.2-14,9c-1.5,4.8,3.8,5.7,3.8,5.7s-45.8-7.5-48.3-8.8c-2.5-1.3-3.8-17-3.8-17L111.5,210.9z"/>
<path class="st5" d="M84.7,218.8c0,0,0.3,2.9,1.9,3.8c1.7,0.8,10.7-1.4,10.7-1.4s-7,6.2-6.3,9.2c0.7,3,28.3,15.3,33,15.3
	c4.7,0,13.3,0,13.3,0s-14.7,3.8-19.7,6.8s-6.6,4.7-6.6,4.7s-8.6-6.8-16.4-8.7s-15.5-6.5-16.5-9.2c-1-2.7-1.5-9-1.5-9L84.7,218.8z"/>
<path class="st5" d="M306.3,220.7c0,0,4,3,6,2.7c2-0.3,5.3-2.6,5.3-2.6l11.1,4.7c0,0,9.6,11.5,23.6,13.9c14,2.3,27,2.7,27,2.7
	l-20.8,9.3l-39.8-11c0,0-8.7,3-9.3-0.7C308.7,236.1,306.3,220.7,306.3,220.7z"/>
<path class="st5" d="M341.3,214c0,0,17.7,13.4,24.4,14.4c6.7,1,43,1.3,43,1.3l-10.8,11v6l-64.1-16.4l-7.2-8.6c0,0,5.8-11.4,5.3-10.2
	c-0.5,1.1,6.6,2.9,6.6,2.9L341.3,214z"/>
</svg>
